HIERARCHY
ROOT Hips
{
	OFFSET 0.00000 0.00000 0.00000
	CHANNELS 6 Xposition Yposition Zposition Zrotation Yrotation Xrotation 
	JOINT LHipJoint
	{
		OFFSET 0 0 0
		CHANNELS 3 Zrotation Yrotation Xrotation
		JOINT LeftUpLeg
		{
			OFFSET 1.24777 -1.64261 0.71711
			CHANNELS 3 Zrotation Yrotation Xrotation
			JOINT LeftLeg
			{
				OFFSET 2.49329 -6.85026 0.00000
				CHANNELS 3 Zrotation Yrotation Xrotation
				JOINT LeftFoot
				{
					OFFSET 2.36770 -6.50520 0.00000
					CHANNELS 3 Zrotation Yrotation Xrotation
					JOINT LeftToeBase
					{
						OFFSET 0.14820 -0.40718 2.21395
						CHANNELS 3 Zrotation Yrotation Xrotation
						End Site
						{
							OFFSET 0.00000 -0.00000 1.13491
						}
					}
				}
			}
		}
	}
	JOINT RHipJoint
	{
		OFFSET 0 0 0
		CHANNELS 3 Zrotation Yrotation Xrotation
		JOINT RightUpLeg
		{
			OFFSET -1.18320 -1.64261 0.71711
			CHANNELS 3 Zrotation Yrotation Xrotation
			JOINT RightLeg
			{
				OFFSET -2.46559 -6.77417 0.00000
				CHANNELS 3 Zrotation Yrotation Xrotation
				JOINT RightFoot
				{
					OFFSET -2.38450 -6.55136 0.00000
					CHANNELS 3 Zrotation Yrotation Xrotation
					JOINT RightToeBase
					{
						OFFSET -0.17454 -0.47954 2.02925
						CHANNELS 3 Zrotation Yrotation Xrotation
						End Site
						{
							OFFSET -0.00000 -0.00000 1.05076
						}
					}
				}
			}
		}
	}
	JOINT LowerBack
	{
		OFFSET 0 0 0
		CHANNELS 3 Zrotation Yrotation Xrotation
		JOINT Spine
		{
			OFFSET -0.02305 1.98660 0.00319
			CHANNELS 3 Zrotation Yrotation Xrotation
			JOINT Spine1
			{
				OFFSET -0.00718 1.99033 -0.00533
				CHANNELS 3 Zrotation Yrotation Xrotation
				JOINT Neck
				{
					OFFSET 0 0 0
					CHANNELS 3 Zrotation Yrotation Xrotation
					JOINT Neck1
					{
						OFFSET 0.00095 1.61015 0.10698
						CHANNELS 3 Zrotation Yrotation Xrotation
						JOINT Head
						{
							OFFSET -0.01060 1.59924 0.01317
							CHANNELS 3 Zrotation Yrotation Xrotation
							End Site
							{
								OFFSET -0.00458 1.63304 -0.00592
							}
						}
					}
				}
				JOINT LeftShoulder
				{
					OFFSET 0 0 0
					CHANNELS 3 Zrotation Yrotation Xrotation
					JOINT LeftArm
					{
						OFFSET 3.05381 1.47088 -0.01697
						CHANNELS 3 Zrotation Yrotation Xrotation
						JOINT LeftForeArm
						{
							OFFSET 4.25106 -0.00000 0.00000
							CHANNELS 3 Zrotation Yrotation Xrotation
							JOINT LeftHand
							{
								OFFSET 3.27592 -0.00000 0.00000
								CHANNELS 3 Zrotation Yrotation Xrotation
								JOINT LeftFingerBase
								{
									OFFSET 0 0 0
									CHANNELS 3 Zrotation Yrotation Xrotation
									JOINT LeftHandIndex1
									{
										OFFSET 0.65781 -0.00000 0.00000
										CHANNELS 3 Zrotation Yrotation Xrotation
										End Site
										{
											OFFSET 0.53034 -0.00000 0.00000
										}
									}
								}
								JOINT LThumb
								{
									OFFSET 0 0 0
									CHANNELS 3 Zrotation Yrotation Xrotation
									End Site
									{
										OFFSET 0.53844 -0.00000 0.53844
									}
								}
							}
						}
					}
				}
				JOINT RightShoulder
				{
					OFFSET 0 0 0
					CHANNELS 3 Zrotation Yrotation Xrotation
					JOINT RightArm
					{
						OFFSET -2.83695 1.31619 -0.22674
						CHANNELS 3 Zrotation Yrotation Xrotation
						JOINT RightForeArm
						{
							OFFSET -4.46073 -0.00000 0.00000
							CHANNELS 3 Zrotation Yrotation Xrotation
							JOINT RightHand
							{
								OFFSET -3.44416 -0.00000 0.00000
								CHANNELS 3 Zrotation Yrotation Xrotation
								JOINT RightFingerBase
								{
									OFFSET 0 0 0
									CHANNELS 3 Zrotation Yrotation Xrotation
									JOINT RightHandIndex1
									{
										OFFSET -0.61651 -0.00000 0.00000
										CHANNELS 3 Zrotation Yrotation Xrotation
										End Site
										{
											OFFSET -0.49705 -0.00000 0.00000
										}
									}
								}
								JOINT RThumb
								{
									OFFSET 0 0 0
									CHANNELS 3 Zrotation Yrotation Xrotation
									End Site
									{
										OFFSET -0.50464 -0.00000 0.50464
									}
								}
							}
						}
					}
				}
			}
		}
	}
}
MOTION
Frames: 9
Frame Time: .0083333
-8.0538 16.3523 14.1312 -168.2280 -1.4488 -165.7360 0.0000 0.0000 0.0000 -12.1144 15.1022 -54.6777 11.2306 18.0461 63.5281 1.4017 11.3747 -29.0558 0.0807 1.8325 5.0430 0.0000 0.0000 0.0000 29.0411 -12.2706 -16.0688 -3.1410 -10.9198 32.0100 -2.4010 1.5330 -28.9205 -2.1512 9.1742 -26.3417 4.6282 5.0907 -3.4776 2.0929 6.8852 -2.2878 -0.1791 3.5072 -0.1422 3.0366 -1.3638 -11.4515 0.9296 -3.2714 19.3339 -0.5585 -1.4756 7.8317 -0.0000 0.0000 0.0000 -76.6595 25.7181 38.2011 47.0574 -51.7375 -23.8435 -0.0000 0.0000 -12.7055 -10.7867 13.8913 -2.6189 -7.1250 0.0000 -0.0000 -33.2122 41.3284 3.4439 -0.0000 0.0000 0.0000 74.6268 -15.8777 42.1425 -66.2309 57.7537 -39.5706 0.0000 -0.0000 -8.2986 1.3835 -18.5739 -0.4408 7.1250 -0.0000 -0.0000 27.6417 -46.5053 -1.1108
-8.0966 16.3562 14.0806 -168.4130 -4.4739 -167.1640 0.0000 0.0000 0.0000 -12.5312 14.3644 -52.8046 10.8355 17.8537 62.2463 1.5426 11.4098 -30.0184 0.0693 1.6980 4.6717 0.0000 0.0000 0.0000 29.0241 -15.3786 -16.0738 -3.3477 -11.2376 33.0856 -2.3317 1.9598 -28.3790 -2.4300 9.7096 -28.0413 4.6259 4.7459 -2.8795 2.4743 6.0285 -2.1921 0.1272 2.8882 -0.4348 2.6447 -1.6690 -11.6405 1.0666 -3.6828 19.7229 -0.4974 -1.6845 7.9998 -0.0000 -0.0000 0.0000 -77.3857 26.7774 37.5186 46.7172 -51.5825 -23.5767 -0.0000 0.0000 -13.4725 -11.2223 15.0765 -2.9543 -7.1250 0.0000 -0.0000 -34.1048 42.2917 2.6209 -0.0000 -0.0000 0.0000 74.8940 -16.5422 39.7764 -66.9391 57.8920 -40.1700 0.0000 -0.0000 -11.2359 2.8182 -17.9703 -0.8701 7.1250 -0.0000 -0.0000 28.5873 -45.7889 -0.6067
-8.1398 16.3667 14.0472 -168.0770 -6.2470 -167.5090 0.0000 0.0000 0.0000 -12.7586 14.3297 -52.2858 10.4723 17.6670 61.0556 1.7832 10.5743 -30.9269 0.1073 2.1122 5.8157 0.0000 0.0000 0.0000 29.2491 -17.0093 -17.1499 -3.6444 -11.6715 34.5797 -2.1714 3.2919 -27.0543 -2.6360 10.0811 -29.2398 4.7799 4.6330 -3.1329 2.8708 5.8278 -2.3780 0.4527 2.7682 -0.5171 2.4350 -1.9599 -11.6816 1.0500 -4.0580 19.9301 -0.5098 -1.8790 8.0765 -0.0000 -0.0000 0.0000 -78.0478 27.8516 36.9135 46.7280 -51.5875 -23.5851 -0.0000 0.0000 -14.5246 -10.8139 16.0482 -3.0227 -7.1250 0.0000 -0.0000 -34.2547 43.1640 1.7811 -0.0000 -0.0000 0.0000 75.1632 -17.2372 37.3871 -67.6870 58.0326 -40.8040 0.0000 -0.0000 -14.2486 3.7060 -17.5710 -1.1202 7.1250 -0.0000 -0.0000 29.1526 -45.3274 -0.2580
-8.1879 16.3823 14.0170 -167.7640 -7.8625 -167.7370 0.0000 0.0000 0.0000 -12.7208 13.9999 -51.6336 10.1192 17.4763 59.8860 2.0061 9.3486 -31.4608 0.1552 2.5382 6.9956 0.0000 0.0000 0.0000 29.2839 -18.3082 -18.5674 -4.0658 -12.2474 36.6130 -1.9581 4.8828 -25.3699 -2.9362 10.5911 -30.9129 4.8533 4.5722 -3.5958 3.2320 5.6800 -2.5742 0.8053 2.6764 -0.4946 2.4585 -2.2451 -11.4414 0.9411 -4.4333 19.9204 -0.5837 -2.0710 8.0235 -0.0000 0.0000 0.0000 -78.6791 28.8566 36.2596 46.6739 -51.5626 -23.5427 -0.0000 0.0000 -15.4433 -9.7931 15.9866 -2.7217 -7.1250 0.0000 -0.0000 -33.4108 43.2310 1.6611 -0.0000 0.0000 0.0000 75.3411 -17.9329 35.0858 -68.2647 58.1374 -41.2943 0.0000 -0.0000 -17.1625 4.2218 -17.3536 -1.2613 7.1250 -0.0000 -0.0000 29.4853 -45.0737 -0.0589
-8.2438 16.4065 13.9893 -167.6310 -9.6944 -168.3440 0.0000 0.0000 0.0000 -12.4172 13.3079 -50.2522 9.7844 17.2868 58.7654 2.1789 7.8082 -31.5489 0.1772 2.7116 7.4770 0.0000 0.0000 0.0000 28.8941 -19.6770 -19.9130 -4.6568 -12.9866 39.3182 -1.6827 6.5626 -23.2836 -3.2854 11.1433 -32.7647 4.8257 4.3563 -3.6598 3.6007 5.3657 -2.6140 1.1882 2.5105 -0.5442 2.1707 -2.5004 -11.3380 1.1013 -4.7627 19.9199 -0.5148 -2.2345 8.0129 0.0000 0.0000 0.0000 -79.4113 29.8288 35.5044 46.8591 -51.6474 -23.6879 -0.0000 0.0000 -15.7402 -9.2165 16.6000 -2.6541 -7.1250 0.0000 -0.0000 -33.2475 43.8220 1.0968 0.0000 0.0000 0.0000 75.3287 -18.4176 32.9536 -68.4755 58.1749 -41.4735 0.0000 -0.0000 -19.7064 4.2176 -17.2269 -1.2511 7.1250 -0.0000 -0.0000 29.4217 -44.9631 0.0295
-8.3032 16.4226 13.9682 -167.5000 -11.4457 -169.0520 0.0000 0.0000 0.0000 -11.8784 12.3894 -48.5855 9.4661 17.0985 57.6886 2.3301 6.0064 -31.4557 0.2124 2.9671 8.1872 0.0000 0.0000 0.0000 28.2249 -20.8610 -21.4556 -5.4287 -13.8509 42.6435 -1.2889 8.6208 -20.3325 -3.5743 11.5713 -34.2318 4.8635 4.1925 -3.5812 3.9057 5.1351 -2.6214 1.4649 2.3881 -0.6235 1.9785 -2.7763 -11.3308 1.2487 -5.1492 20.0178 -0.4752 -2.4182 8.0515 -0.0000 0.0000 0.0000 -79.9298 30.7615 34.9406 47.1229 -51.7671 -23.8949 -0.0000 0.0000 -15.9197 -7.5150 16.4022 -2.1333 -7.1250 0.0000 -0.0000 -31.7677 43.8536 1.0077 -0.0000 0.0000 0.0000 75.3499 -18.8233 30.8457 -68.1748 58.1213 -41.2180 0.0000 -0.0000 -21.7389 3.6398 -17.1814 -1.0765 7.1250 -0.0000 -0.0000 28.9126 -44.9932 0.0053
-8.3670 16.4398 13.9573 -167.6100 -13.0155 -169.6980 0.0000 0.0000 0.0000 -11.5191 11.2717 -46.7612 9.1545 16.9061 56.6230 2.6112 3.1351 -31.7763 0.5560 4.7765 13.2723 0.0000 0.0000 0.0000 26.9893 -21.6546 -23.2845 -6.3823 -14.7889 46.4975 -0.6892 11.1701 -15.6706 -3.4215 11.3480 -33.4629 4.6791 3.9525 -3.5143 4.2269 4.8091 -2.4698 1.8849 2.2293 -0.5502 1.6335 -2.9579 -11.6893 1.3383 -5.3598 20.2032 -0.4202 -2.5239 8.1892 -0.0000 -0.0000 0.0000 -80.9964 31.1839 33.7143 46.7849 -51.6135 -23.6297 -0.0000 0.0000 -15.4343 -6.1595 14.6567 -1.5642 -7.1250 0.0000 -0.0000 -29.8642 42.4901 2.0522 -0.0000 -0.0000 0.0000 74.9073 -18.8264 29.2714 -67.4361 57.9860 -40.5913 0.0000 -0.0000 -23.0633 2.3974 -17.0191 -0.7021 7.1250 -0.0000 -0.0000 27.7839 -44.9995 0.0004
-8.4328 16.4672 13.9506 -167.8640 -14.4414 -170.3210 0.0000 0.0000 0.0000 -11.4164 10.2764 -44.9921 8.8517 16.7113 55.5757 2.7485 0.5167 -31.6041 0.9328 6.1523 17.2271 0.0000 0.0000 0.0000 25.2621 -21.7627 -25.1580 -7.5028 -15.7411 50.7512 -0.0227 13.6925 -9.8847 -3.1798 10.9806 -32.2146 4.4898 3.7871 -3.3192 4.4017 4.6066 -2.4105 2.1505 2.1319 -0.6275 1.5903 -3.1462 -11.7118 1.2511 -5.6054 20.3384 -0.4700 -2.6511 8.2365 0.0000 0.0000 0.0000 -81.7616 31.7441 32.6986 46.1980 -51.3420 -23.1705 -0.0000 0.0000 -14.9769 -4.5206 18.4853 -1.4360 -7.1250 0.0000 -0.0000 -30.2911 46.0238 -0.8431 0.0000 0.0000 0.0000 74.4741 -19.0509 27.9237 -66.6183 57.8300 -39.8983 0.0000 -0.0000 -23.3613 -0.0031 -17.0433 0.0009 7.1250 -0.0000 -0.0000 25.7375 -45.3104 -0.2115
-8.4968 16.5066 13.9466 -168.3960 -15.7043 -171.0110 0.0000 0.0000 0.0000 -11.7510 9.4936 -43.2399 8.5513 16.5102 54.5251 2.7099 -1.0763 -30.8990 1.1103 6.6945 18.8133 0.0000 0.0000 0.0000 22.8946 -21.1464 -26.8238 -8.7436 -16.6399 55.1991 0.6340 15.9564 -2.4309 -2.5549 9.9370 -28.7729 4.0571 3.6159 -2.9063 4.5008 4.4316 -2.3443 2.4607 2.0561 -0.8299 1.3618 -3.3311 -11.7236 1.2533 -5.8488 20.6264 -0.4630 -2.7848 8.3417 -0.0000 -0.0000 0.0000 -82.2978 32.5873 31.9009 46.1770 -51.3322 -23.1541 -0.0000 0.0000 -14.1735 -3.4699 17.7967 -1.0617 -7.1250 0.0000 -0.0000 -29.0600 45.5548 -0.4353 -0.0000 -0.0000 0.0000 73.9321 -19.3868 26.9326 -65.8472 57.6767 -39.2462 0.0000 -0.0000 -22.4816 -3.5488 -17.0412 1.0412 7.1250 -0.0000 -0.0000 22.6472 -45.7399 -0.4361
